<svg width="24" height="24" viewBox="0 0 24 24" fill="none" xmlns="http://www.w3.org/2000/svg">
<g clip-path="url(#clip0_1_31)">
<path d="M16.2516 0C16.3063 0 16.3609 0 16.4186 0C16.5526 1.65515 15.9208 2.89188 15.153 3.78748C14.3996 4.67689 13.368 5.53951 11.6995 5.40862C11.5882 3.77717 12.2209 2.63217 12.9877 1.73863C13.6988 0.905903 15.0026 0.164897 16.2516 0Z" fill="black"/>
<path d="M21.3026 17.2276C21.3026 17.2441 21.3026 17.2585 21.3026 17.274C20.8337 18.6942 20.1648 19.9113 19.3486 21.0409C18.6035 22.0663 17.6904 23.4463 16.0599 23.4463C14.6511 23.4463 13.7153 22.5404 12.2714 22.5157C10.7441 22.4909 9.90413 23.2732 8.50766 23.47C8.34791 23.47 8.18817 23.47 8.03152 23.47C7.00606 23.3216 6.17849 22.5095 5.57558 21.7777C3.79778 19.6155 2.42399 16.8226 2.1684 13.2484C2.1684 12.898 2.1684 12.5487 2.1684 12.1983C2.27661 9.6403 3.51952 7.56053 5.17158 6.5526C6.04348 6.01668 7.24207 5.56013 8.57671 5.76419C9.14869 5.85282 9.73305 6.04863 10.2453 6.24239C10.7307 6.42893 11.3377 6.75975 11.9128 6.74223C12.3023 6.73089 12.6899 6.52786 13.0825 6.38461C14.2327 5.96928 15.3602 5.49314 16.8463 5.71678C18.6323 5.9868 19.9 6.78036 20.6832 8.00472C19.1724 8.96628 17.9779 10.4153 18.182 12.8898C18.3633 15.1376 19.6702 16.4526 21.3026 17.2276Z" fill="black"/>
</g>
<defs>
<clipPath id="clip0_1_31">
<rect width="23.47" height="23.47" fill="white"/>
</clipPath>
</defs>
</svg>
